<?xml version="1.0" encoding="UTF-8"?>
<!DOCTYPE svg PUBLIC "-//W3C//DTD SVG 1.1//EN" "http://www.w3.org/Graphics/SVG/1.1/DTD/svg11.dtd">
<!-- Creator: CorelDRAW 2021 (64-Bit) -->
<svg xmlns="http://www.w3.org/2000/svg" xml:space="preserve" width="0.877713in" height="1.4683in" version="1.1" style="shape-rendering:geometricPrecision; text-rendering:geometricPrecision; image-rendering:optimizeQuality; fill-rule:evenodd; clip-rule:evenodd"
viewBox="0 0 23.31 38.99"
 xmlns:xlink="http://www.w3.org/1999/xlink"
 xmlns:xodm="http://www.corel.com/coreldraw/odm/2003">
 <defs>
  <style type="text/css">
   <![CDATA[
    .fil1 {fill:white}
    .fil0 {fill:white;fill-rule:nonzero}
   ]]>
  </style>
 </defs>
 <g id="Layer_x0020_1">
  <metadata id="CorelCorpID_0Corel-Layer"/>
  <g id="_2429831863264">
   <path class="fil0" d="M11.65 12.3c1.78,0.22 3.94,0.62 5.93,1.22 1.68,0.51 3.23,1.16 4.31,1.96 -0.03,4.95 -0.75,9.26 -2.54,12.99 -1.61,3.36 -4.08,6.27 -7.71,8.79 -3.63,-2.52 -6.11,-5.44 -7.71,-8.79 -1.78,-3.73 -2.51,-8.04 -2.54,-12.99 1.08,-0.8 2.63,-1.45 4.31,-1.96 2,-0.6 4.15,-1 5.93,-1.22zm-0.06 26.62l0 0.07 0.06 -0.04 0.06 0.04 0 -0.07c4.24,-2.78 7.1,-6.04 8.92,-9.85 1.93,-4.03 2.68,-8.64 2.68,-13.93l0 -0.33 -0.26 -0.21c-1.25,-1.03 -3.09,-1.83 -5.06,-2.42 -2.12,-0.64 -4.41,-1.06 -6.28,-1.29l0 -0.01 -0.06 0.01 -0.06 -0.01 0 0.01c-1.87,0.23 -4.17,0.64 -6.28,1.29 -1.97,0.6 -3.81,1.39 -5.06,2.42l-0.26 0.21 0 0.33c0,5.29 0.75,9.9 2.68,13.93 1.82,3.81 4.68,7.07 8.92,9.85z"/>
   <path class="fil1" d="M12.01 0c0.18,0.32 2.06,4.92 2.34,5.57 0.12,0.28 0.11,0.27 0.02,0.55 -0.07,0.19 -0.12,0.36 -0.19,0.55 -0.11,0.33 -0.66,2 -0.76,2.19l-2.63 -0.02c-0.25,-0.01 -0.65,0.02 -0.87,-0.02 -0.14,-0.35 -0.25,-0.76 -0.37,-1.12 -0.12,-0.38 -0.24,-0.73 -0.35,-1.1 -0.23,-0.72 -0.32,-0.7 -0.14,-1.1 0.17,-0.37 0.32,-0.73 0.48,-1.09 0.33,-0.74 0.65,-1.47 0.97,-2.21 0.17,-0.38 0.83,-1.97 0.97,-2.2 0.04,0.13 0.02,0.51 0.02,0.64l-0.04 3.76c-0,0.2 0.01,0.45 -0.01,0.63 -0.21,0.13 -0.33,0.14 -0.48,0.4 -0.27,0.51 0.05,1.19 0.71,1.19 0.89,0.01 1.17,-1.2 0.29,-1.58l-0 -2.21c0,-0.07 0.01,-0.1 0.01,-0.16 0,-0.07 -0.01,-0.08 -0.01,-0.16 -0,-0.07 0.02,-0.11 0.02,-0.18 0,-0.06 -0.01,-0.1 -0.01,-0.16 0,-0.07 0.02,-0.09 0.01,-0.16 -0,-0.07 -0.02,-0.08 -0.01,-0.16l0.01 -1.25c-0,-0.07 0.01,-0.08 0.01,-0.16 0,-0.06 -0.01,-0.1 -0.01,-0.16 -0,-0.09 0,-0.2 0.03,-0.32zm-2.92 4.1c-0.01,0.02 -0.03,0.04 -0.04,0.06 0.01,0.01 0.03,0.02 0.04,0.03l0 -0.09zm0 5.6c-0.39,0.23 -0.83,0.41 -1.33,0.49 -3.69,-0.19 -3.79,-2.63 -3.06,-5.45l-3.85 -1.45 4.08 9.55c1.62,-0.72 2.96,-1.24 4.16,-1.55l0 -1.59zm0.55 1.9c-0.06,-0.16 -0.03,-1.28 -0.02,-1.54 0.01,-0.87 0.08,-0.71 1.03,-0.71 0.82,0 1.89,0.04 2.68,0.02 0.14,-0 0.26,0.01 0.34,0.2 0.07,0.14 0.02,1.3 0.02,1.53 -0,0.17 0.07,0.63 -0.25,0.72l-3.45 -0.01c-0.12,-0.01 -0.28,-0.04 -0.35,-0.21zm1.89 -6.04c0.33,-0.22 0.7,0.29 0.34,0.54 -0.33,0.23 -0.73,-0.29 -0.34,-0.54zm2.69 -1.46c0.01,0.02 0.03,0.04 0.04,0.06 -0.01,0.01 -0.03,0.02 -0.04,0.03l0 -0.09zm0 5.6c0.39,0.23 0.83,0.41 1.33,0.49 3.69,-0.19 3.79,-2.63 3.06,-5.45l3.85 -1.45 -4.08 9.55c-1.62,-0.72 -2.96,-1.24 -4.16,-1.55l0 -1.59z"/>
   <path class="fil0" d="M11.73 21.47c-0.84,-0.35 -1.67,-0.7 -1.6,-1.56 0.1,-0.8 0.78,-1.3 2,-1.3 1.56,0 2.53,0.88 2.53,2.12l0.12 0 0.47 -2.84 -1.3 0c-1.05,-0.1 -2.43,-0.18 -2.94,-0.18 -2.08,0 -3.41,0.99 -3.7,3.02 -0.23,1.75 0.56,3.17 2.24,3.87l2.04 0.95c1.4,0.6 1.95,1.17 1.95,1.89 0,0.76 -0.58,1.52 -2.04,1.52 -2.32,-0.02 -3.6,-1.77 -3.52,-3.54l-0.12 0c-0.6,0.74 -1.01,2.43 -0.58,3.33 0.47,0.58 1.71,1.11 3.74,1.11 3.21,0 5.1,-1.28 5.29,-3.78 0.16,-1.79 -0.76,-2.9 -2.06,-3.46l-2.51 -1.15z"/>
  </g>
 </g>
</svg>
